<?xml version="1.0" encoding="utf-8"?>
<!-- Generator: Adobe Illustrator 24.0.1, SVG Export Plug-In . SVG Version: 6.00 Build 0)  -->
<svg version="1.1" id="Layer_1" xmlns="http://www.w3.org/2000/svg" xmlns:xlink="http://www.w3.org/1999/xlink" x="0px" y="0px"
	 viewBox="0 0 1000 1000" style="enable-background:new 0 0 1000 1000;" xml:space="preserve">
<style type="text/css">
	.st0{fill-rule:evenodd;clip-rule:evenodd;fill:#9CB6DF;}
	.st1{fill-rule:evenodd;clip-rule:evenodd;fill:#7392CB;}
	.st2{fill-rule:evenodd;clip-rule:evenodd;fill:#E6E6E5;}
	.st3{fill-rule:evenodd;clip-rule:evenodd;fill:#FFFFFF;}
	.st4{fill-rule:evenodd;clip-rule:evenodd;fill:#FFCD05;}
	.st5{fill-rule:evenodd;clip-rule:evenodd;fill:#FDB813;}
	.st6{fill-rule:evenodd;clip-rule:evenodd;fill:#E98F24;}
	.st7{fill-rule:evenodd;clip-rule:evenodd;fill:#F0494B;}
	.st8{fill-rule:evenodd;clip-rule:evenodd;fill:#FEE35F;}
	.st9{fill-rule:evenodd;clip-rule:evenodd;fill:#F2F2F2;}
	.st10{fill-rule:evenodd;clip-rule:evenodd;fill:#010101;}
	.st11{fill:none;stroke:#E98F24;stroke-width:2.8347;stroke-miterlimit:22.9256;}
	.st12{fill:none;stroke:#E98F24;stroke-width:2.126;stroke-miterlimit:22.9256;}
	.st13{fill-rule:evenodd;clip-rule:evenodd;fill:#333333;}
	.st14{fill-rule:evenodd;clip-rule:evenodd;fill:#676767;}
	.st15{fill-rule:evenodd;clip-rule:evenodd;fill:#F9F06D;}
	.st16{fill-rule:evenodd;clip-rule:evenodd;fill:#FBAA19;}
	.st17{fill-rule:evenodd;clip-rule:evenodd;fill:#CCCCCC;}
</style>
<g>
	<path class="st0" d="M464.6,223.8c239.4-81.2,473.9-27.8,523.8,119.4c49.9,147.1-103.7,332.2-343.1,413.4
		C406,837.8,171.5,784.4,121.6,637.2C71.7,490.1,225.2,305,464.6,223.8L464.6,223.8z"/>
	<g>
		<path class="st1" d="M933.6,291.7c29.3-9.9,57.6-4.4,63.2,12.3s-13.5,38.3-42.7,48.2c-29.3,9.9-57.6,4.4-63.2-12.3
			C885.2,323.2,904.4,301.6,933.6,291.7L933.6,291.7z"/>
		<path class="st1" d="M890.7,255.2c14.9,5.1,24,17.8,20.4,28.3c-3.6,10.5-18.6,14.9-33.5,9.8c-14.9-5.1-24-17.8-20.4-28.3
			C860.9,254.5,875.9,250.1,890.7,255.2L890.7,255.2z"/>
		<path class="st1" d="M937.3,255c8-2.7,16.1-0.2,18,5.7c2,5.9-2.9,12.8-10.9,15.5c-8,2.7-16.1,0.2-18-5.7
			C924.5,264.6,929.3,257.7,937.3,255L937.3,255z"/>
		<path class="st2" d="M80.4,467.6c-11.6,22.2-31.3,34.9-44,28.3c-12.7-6.6-13.6-30-2-52.3c11.6-22.2,31.3-34.9,44-28.3
			C91.1,421.9,92,445.3,80.4,467.6L80.4,467.6z"/>
		<path class="st2" d="M32.1,378.8c11.8,4.6,18.6,15.1,15.4,23.4c-3.3,8.3-15.4,11.3-27.2,6.7c-11.8-4.6-18.6-15.1-15.4-23.4
			C8.2,377.2,20.4,374.2,32.1,378.8L32.1,378.8z"/>
		<path class="st2" d="M58.4,354.7c3.2-6.6,9.7-10.1,14.5-7.8c4.9,2.3,6.2,9.6,3,16.2c-3.2,6.6-9.7,10.1-14.5,7.8
			C56.6,368.5,55.3,361.3,58.4,354.7L58.4,354.7z"/>
	</g>
	<g>
		<path class="st2" d="M366.5,202.6c203,68.3,407.3-80.1,471.1,158.1c37.3,139.2-245.3,187.2-410.8,208.6
			c-165.5,21.4-312.3-53-327.8-166C83.4,290.1,163.4,134.3,366.5,202.6L366.5,202.6z"/>
		<path class="st3" d="M163.4,223.2l-15.1,61.3l180.6,46.4l-10.4-140.8c4.1,0.7,8.3,1.6,12.6,2.5l1.1,14.3l96.2,22.6l2-11.9
			c4.1,0.6,8.2,1.2,12.3,1.6l-2,12.1l96,7.6l2.1-16.9c4.2-0.1,8.4-0.3,12.5-0.5l-2.4,18.9l52.6,8l3.2-29.5c4.2-0.2,8.3-0.4,12.4-0.5
			l-21.3,196.3l52.2,6.8l18.7-203.3c4.2,0.2,8.3,0.4,12.3,0.7l-17.7,192.7l8.2,1.7l5.3-55.4l91.2,28.1l1.5-139.6
			c4.2,2.9,8.2,6,12.2,9.5l-1,90.5l52.4-6.9c1.5,4.5,3,9.3,4.4,14.1l-57,7.4l-1.2,115.1c-4,2.5-8.1,4.9-12.4,7.3l0.4-35.3
			l-105.3-21.9l-1.3,14.1l-18.3,67.1l10.3,19.9c-4.2,1.2-8.4,2.3-12.7,3.4l-11-21.4l19.7-72.1l0.1-1.3l-52.5-6.8l-7.6,70l-59.4-9.7
			l-7.6,66c-4.2,0.7-8.5,1.4-12.7,2.1l10-86.3l-1.1-60.1l-96.9-23.6l-4.7,163.1l17.4,5.6l40.3,6.6c-15.8,2.3-31.1,4.4-45.4,6.2
			c-0.6,0.1-1.1,0.1-1.7,0.2l-63.8-20.5l2.3,23.9c-4.2-0.1-8.3-0.2-12.4-0.4l-2.6-26.3l-90.5-3.1l-2.7,13.2c-4-1.2-8-2.5-11.9-3.9
			l2-9.7l-28.6-1c-10.3-4.7-20.2-10-29.4-15.6l61.1,2.1l10.3-49.2l-70.5-3.1L175.4,518c-3.7-2.6-7.2-5.2-10.7-7.9l17.4-57.1
			l-12.2-12l24.2-62.8l-65.1-15.3l-19.3,78.5c-3.1-7-5.6-14.2-7.5-21.6l44.4-180.6C151.8,233.6,157.4,228.2,163.4,223.2L163.4,223.2
			z M192.6,461.3l74.2,3.2l73.9,0.1l-5.2-53.2l-129-30.3L185,436.9l11.6,11.4L192.6,461.3L192.6,461.3z M342.1,479.3l-70.8-0.1
			l-10.3,49.3l86.1,3L342.1,479.3L342.1,479.3z M199.4,364.5l18.2-47.2l-72.8-18.7l-12.3,50.2L199.4,364.5L199.4,364.5z M230,320.5
			l-18.1,47l122.3,28.7l-1.5-15l0-0.2l-2.6-34.8L230,320.5L230,320.5z M333.3,222.1l11.6,157.6l0,0l5.5,57l54.9,2.2l2.5-85.5
			L426,243.9L333.3,222.1L333.3,222.1z M438.2,245.9L420,355.4l-0.5,17.5l97.4,23.7l17.9-143.1L438.2,245.9L438.2,245.9z
			 M547.1,254.9l-5.1,41l53.2,11L600,263L547.1,254.9L547.1,254.9z M540.2,310.4l-12,95.5l1.2,66.4l-0.3,2.8l47.1,7.7l17.5-161.3
			L540.2,310.4L540.2,310.4z M681.7,416l83.8,17.4l0.3-32.3l-80.4-24.7L681.7,416L681.7,416z M351.9,451.4l7.9,81.8l42.4,13.7
			l2.7-93.3L351.9,451.4L351.9,451.4z"/>
	</g>
	<g>
		<path class="st2" d="M180.8,721.4C71.9,724.5,2.2,729.3,2.2,734.7c0,6,87.4,11.3,219.2,14.3C206.6,740.8,193,731.6,180.8,721.4
			L180.8,721.4z"/>
		<path class="st1" d="M476,717.8c-111.6,0-214.3,1.4-295.2,3.7c12.2,10.2,25.8,19.4,40.6,27.5c73.5,1.7,160.9,2.6,254.6,2.6
			c66.6,0,129.9-0.5,187.4-1.4c24.2-8.9,47.5-18.9,69.7-29.8C659.1,718.8,570.8,717.8,476,717.8L476,717.8z"/>
		<path class="st4" d="M245.8,490.8c-43.4,14.2-116.8,21.8-170.1,38.1c-53.3,16.2-73.5,46.3-73.5,54.9s0,38.7,0,52.6
			c0,13.9,17.7,27.6,44.4,43c26.7,15.4,50.3,12.2,63.9,12.2h5.8c-3.3-9.2-5.1-19.2-5.1-29.5c0-48.1,39-87,87-87c48.1,0,87,39,87,87
			c0,10.4-1.8,20.3-5.1,29.5h460.3c-3.3-9.2-5.1-19.2-5.1-29.5c0-48.1,39-87,87-87c28.7,0,54.2,13.9,70,35.3
			c16.3-15.9,30.9-32.3,43.7-49c-0.5-3.9-0.8-7.6-0.8-11.1c0-33.4-64.5-100-74.8-110.6c-10.3-10.6-23.2-23.2-21.8-28.1
			c1.3-5,15.5-2.3,16.6-6.3c1.1-4-31.4-10.6-67.5-16.6c-36.1-6-146-17.2-219.1-13.2c-73.2,4-114.2,14.2-172.5,41.4
			C337.5,444.1,302.7,467.6,245.8,490.8L245.8,490.8z"/>
		<path class="st5" d="M510.4,624c-92.5,0-167.5,2.1-167.5,4.7c0,2.6,75,4.7,167.5,4.7s167.5-2.1,167.5-4.7
			C677.9,626.1,602.9,624,510.4,624L510.4,624z"/>
		<path class="st6" d="M935,551.5c0-0.4,0-0.7,0-1.1c0-0.5,0-1,0-1.5c-10,2.2-22.9,5.6-36.3,13.5c-3.3,2-6.8,4.5-10.5,7.1
			c-7.4,5.3-15.9,11.4-26.2,15.3c1,0.5,2,1.1,3,1.6c9.6-4,17.6-9.7,24.7-14.8c3.6-2.6,7-5.1,10.3-7C912.7,557,925.2,553.6,935,551.5
			L935,551.5z"/>
		<path class="st7" d="M931.9,535.6c-5.7-15.4-18.3-33.8-31.5-50.5c-14.3-2-20.4-2.3-21.7,1.6c-1.6,5.2,25.4,42.3,39.8,46.9
			C922.7,535.1,927.4,535.6,931.9,535.6L931.9,535.6z"/>
		<path class="st3" d="M82.2,526.9c-2.2,0.6-4.4,1.3-6.5,1.9C37.2,540.6,16,559.5,7.2,572.3c21.6,9.1,73.9-4.8,86.8-8
			c15.4-3.9,11.8-25.5,7.4-30.9C96.5,528.7,89.9,526.8,82.2,526.9L82.2,526.9z"/>
		<path class="st8" d="M848.6,498.3c-11.3,12.4-157.1,11.9-196.6,11.9c-82.7,0-268.9,15.1-268.9,12.6c0-4.7,27.1-5.9,89.3-12.2
			c31.7-3.2,72.4-6.6,123.3-9.3C746.9,493.2,865.1,480.3,848.6,498.3L848.6,498.3z"/>
		<path class="st9" d="M69.7,536.1c-7.3,0-19.2,7.8-26.7,17.3c-7.5,9.6-7.6,17.3-0.3,17.3c7.3,0,19.2-7.8,26.7-17.3
			C76.8,543.8,77,536.1,69.7,536.1L69.7,536.1z"/>
		<path class="st10" d="M822.1,581.9c-44.3,0-80.3,35.9-80.3,80.3c0,17.2,5.4,33.2,14.7,46.3c50.3-27,94.5-58.8,130.8-93.2
			C872.7,595.1,848.9,581.9,822.1,581.9L822.1,581.9z"/>
		<path class="st10" d="M198.1,581.9c-44.3,0-80.3,35.9-80.3,80.3s35.9,80.3,80.3,80.3c44.3,0,80.3-35.9,80.3-80.3
			S242.5,581.9,198.1,581.9L198.1,581.9z"/>
		<path class="st3" d="M773.7,411.4c11.1,9.2,26.7,52.5,29.5,68.4c0,0-180.4,8.9-207.4,12.2l4.2-99.5
			C600,392.5,760.4,400.8,773.7,411.4L773.7,411.4z"/>
		<path class="st9" d="M773.7,411.4c6.9,5.7,15.6,24.8,21.8,42.2c-14.2,5.3-33.3,5.6-43,12.2c-6.2,4.2-5.2,10.4-1.2,16.7
			c-38.7,2-90.6,4.8-124.4,7.1c19.7-17.2,7-37,21-47.3c19.5-14.3,65.9,0,79.2-15.2c4.6-5.3,6.1-14.4,6-24
			C754,405.5,769.9,408.3,773.7,411.4L773.7,411.4z M596.4,478.6l0.2-5.2c2.1-0.2,4.2-0.6,6-1.3c3.1-1.3,5.7-3.4,7.3-6.8
			c2.1-4.4,2.6-10.7,0.6-19.6c-3.8-16.6,4.6-24,17.7-27c11.6-2.6,26.9-1.5,39.9-0.6c11,0.8,20.3,1.5,23.2-0.2
			c5.5-3.1,3.7-8.8,0.4-14.5c-0.9-1.6-2-3.2-3.1-4.9c2.2,0.2,4.3,0.4,6.5,0.6c0.4,0.6,0.7,1.2,1.1,1.8c4.6,8.1,6.8,16.3-2.3,21.5
			c-4.3,2.5-14.3,1.8-26.1,0.9c-12.7-0.9-27.6-2-38.5,0.5c-10.2,2.3-16.8,8-13.8,20.9c2.3,10.1,1.6,17.6-1,22.9
			c-2.2,4.6-5.8,7.6-10,9.3C602,477.8,599.2,478.4,596.4,478.6L596.4,478.6z"/>
		<path class="st3" d="M570.8,392.5l-18.6,103.4c0,0-215.2,20.3-217.7,17.8c-2.5-2.5,15.2-51.7,16.6-55.1
			C352.5,455.1,432.3,403.3,570.8,392.5L570.8,392.5z"/>
		<path class="st9" d="M570.8,392.5l-4.9,27.4c-21.9,2.1-44.1,2.9-47.6,12.1c-8.9,23.1,28.6,22.3,20.2,53.6
			c-1.5,5.6-4.5,9.6-8.4,12.4c-55,5.1-193.5,17.7-195.5,15.7c-0.6-0.6,0-4.2,1.4-9.3c44.4-16,98.7-11.7,98.7-24.6
			c0-17.2-37.9-14-33-33.5c4.8-19,82.4-21.1,86.4-41.6C512.6,399.2,540.3,394.8,570.8,392.5L570.8,392.5z M345.9,473.2
			c1.1-3.1,2.1-6,3-8.4c6.4-2.9,12.7-2.5,18.1-2.1c4.3,0.3,7.7,0.6,8.8-1.6c1.1-2.3-1-5.9-3.4-9.9c-0.9-1.5-1.8-3-2.6-4.6
			c1.4-0.8,3-1.6,4.6-2.4c0.7,1.5,1.6,3,2.5,4.4c3.1,5.3,6,10.1,3.6,14.8c-2.7,5.3-7.6,4.9-13.8,4.5
			C360.5,467.4,352.9,466.8,345.9,473.2L345.9,473.2z"/>
		<path class="st3" d="M341.8,465.7c0,0-69.7,43-72.8,48.1c-3.1,5.1,59.8,0,59.8,0S331.9,492,341.8,465.7L341.8,465.7z"/>
		<path class="st4" d="M390,490.9c-0.7,13.3-11.3,16.6-18.7,15.8c-7.4-0.9-25.6-7.2-25.6-15.8c0-8.5,10.6-18,22.2-18
			C379.4,473,390.6,479.1,390,490.9L390,490.9z"/>
		<path class="st3" d="M800.1,505.7c0.1,5.4,6.2,8-12.5,7.4c-18.7-0.6-36.4,4.1-34.9-1.6c1.5-5.7,14.2-9.6,24.2-9.6
			S801.1,499.2,800.1,505.7L800.1,505.7z"/>
		<path class="st3" d="M557.7,520.7c0.1,5.4,6.2,8-12.5,7.4c-18.7-0.6-36.4,4.1-34.9-1.6c1.5-5.7,14.2-9.6,24.2-9.6
			C544.5,516.9,558.8,514.2,557.7,520.7L557.7,520.7z"/>
		<path class="st11" d="M803.2,479.7c0,0,14.5,55.4,6.3,70.4c-8.3,15-29.4,17-58.2,44.4c-28.9,27.4-27.9,63.2-36.5,67.6
			c-8.6,4.4-152.7,4.2-152.7,4.2s-220.9,8.1-227.5,2c-6.6-6.1-6.6-72.2-6.6-90.8c0-18.5-0.9-52.4,6.5-64.1 M585.5,392.5l-11,99.5
			c-3.8,14.9-12.6,103.2-12.6,174.4"/>
		<path class="st8" d="M13.7,604.6c0,1.9,58.5,8.3,70.5,3.8c12.1-4.5,11.1-13.1-1.8-13.1c-12.9,0-27.3,5.3-42.2,6.3
			C25.4,602.7,13.7,602.7,13.7,604.6L13.7,604.6z"/>
		<path class="st3" d="M44.5,631.6c0,0-1.5,13.5-0.4,18.1c1.1,4.6,3.2,8.8,8.6,8.7c5.4-0.1,13.8-7.2,13.8-18
			C66.4,629.6,44.5,631.6,44.5,631.6L44.5,631.6z"/>
		<path class="st12" d="M34.7,627.4c14,1.4,29.3-1.7,34.4,5.1c4.6,6.1,3.7,14.1-5.1,25.9"/>
		<path class="st13" d="M822.1,611c-28.3,0-51.2,22.9-51.2,51.2c0,12,4.2,23.1,11.1,31.8c30.5-18.1,58.4-38,83.3-59.2
			C856.3,620.5,840.3,611,822.1,611L822.1,611z"/>
		<path class="st14" d="M860.2,639.2c-5.2-8.5-13.1-15.2-22.6-18.7c4.2,7.4,6.5,15.9,6.5,25c0,2.3-0.2,4.6-0.5,6.8
			C849.3,648,854.8,643.6,860.2,639.2L860.2,639.2z"/>
		<path class="st13" d="M198.1,611c-28.3,0-51.2,22.9-51.2,51.2s22.9,51.2,51.2,51.2c28.3,0,51.2-22.9,51.2-51.2
			S226.4,611,198.1,611L198.1,611z"/>
		<path class="st14" d="M171.5,697.9c7.4,5.5,16.6,8.8,26.6,8.8c24.6,0,44.5-19.9,44.5-44.5c0-11.5-4.4-22-11.5-29.9
			c1.6,4.9,2.4,10.1,2.4,15.5c0,28.3-22.9,51.2-51.2,51.2C178.6,699,175,698.6,171.5,697.9L171.5,697.9z"/>
		<path class="st15" d="M93.6,539.7c-4.8,0-12.7,5.1-17.7,11.5c-4.9,6.3-5,11.5-0.2,11.5c4.8,0,12.7-5.1,17.7-11.5
			C98.3,544.8,98.4,539.7,93.6,539.7L93.6,539.7z"/>
		<path class="st16" d="M357.1,497.6c4.7,2.7,8.3,3.6,4,15c-4.3,11.4-6.9,13.1-19.4,13.1c-12.4,0-11.4-8.8-3.8-16.8
			C345.7,501,351.7,495.1,357.1,497.6L357.1,497.6z"/>
	</g>
	<g>
		<path class="st17" d="M569.9,287.8c7.2,0,13.1,1.2,13.1,2.6c0,1.4-5.9,2.6-13.1,2.6c-7.2,0-13.1-1.2-13.1-2.6
			C556.8,288.9,562.7,287.8,569.9,287.8L569.9,287.8z"/>
		<path class="st7" d="M569.9,159.6c21.2,0,38.4,17.2,38.4,38.4s-38.4,92.4-38.4,92.4s-38.4-71.2-38.4-92.4S548.7,159.6,569.9,159.6
			L569.9,159.6z"/>
		<path class="st0" d="M569.9,184.8c7.2,0,13.1,5.9,13.1,13.1c0,7.2-5.9,13.1-13.1,13.1c-7.2,0-13.1-5.9-13.1-13.1
			C556.8,190.7,562.7,184.8,569.9,184.8L569.9,184.8z"/>
	</g>
</g>
</svg>
